<svg xmlns="http://www.w3.org/2000/svg" shape-rendering="geometricPrecision" width="4000" height="4000" viewBox="0 0 1024 1024"><rect width="100%" height="100%" fill="#FAFAFC"></rect>
  <metadata>null</metadata>

<path d="&#xA;M 170.981 593.116&#xA;C 172.814 575.692 178.025 558.574 185.73 542.833&#xA;C 190.178 533.746 195.188 525.594 203.611 519.705&#xA;C 206.339 517.798 209.358 516.785 212.473 515.725&#xA;C 217.546 513.998 222.445 512.551 227.68 511.389&#xA;C 232.69 510.277 237.821 509.669 242.008 506.473&#xA;C 245.123 504.094 246.582 500.37 247.794 496.749&#xA;C 247.976 496.205 249.092 493.847 248.671 493.408&#xA;C 245.642 493.695 243.175 493.476 241.138 490.87&#xA;C 240.543 490.108 240.257 488.952 239.571 488.317&#xA;C 234.782 489.885 229.965 489.245 227.268 484.633&#xA;C 226.299 482.977 226.157 480.391 224.931 479.022&#xA;C 220.257 477.64 215.652 476.874 213.804 471.646&#xA;C 213.025 469.438 213.231 466.387 212.119 464.388&#xA;C 205.939 460.669 201.793 454.393 204.854 447.166&#xA;C 205.928 444.632 207.654 443.016 209.366 440.972&#xA;C 208.48 439.147 206.762 437.791 205.913 435.838&#xA;C 203.792 430.961 205.269 425.262 209.186 421.748&#xA;C 209.31 421.175 208.364 420.116 208.106 419.624&#xA;C 207.296 418.083 206.813 416.463 206.675 414.724&#xA;C 206.39 411.119 207.652 407.946 210.579 405.797&#xA;C 211.848 404.865 213.699 404.29 214.749 403.13&#xA;C 215.178 401.657 215.157 400.101 215.622 398.633&#xA;C 216.881 394.666 220.343 392.364 224.424 392.291&#xA;C 224.785 390.769 224.542 389.107 225.031 387.52&#xA;C 226.59 382.462 231.223 378.735 236.471 378.31&#xA;C 238.37 378.157 240.281 378.339 242.159 378.628&#xA;C 242.864 378.736 243.943 379.341 244.608 379.114&#xA;C 246.877 374.182 251.539 373.156 256.427 374.43&#xA;C 256.523 374.375 256.619 374.32 256.715 374.265&#xA;C 260.612 368.467 268.569 366.937 274.476 370.482&#xA;C 276.73 371.835 277.677 373.95 279.542 375.556&#xA;C 286.313 370.254 297.651 373.842 299.606 382.434&#xA;C 300.261 382.776 302.746 381.807 303.672 381.814&#xA;C 306.752 381.837 309.737 382.761 312.149 384.721&#xA;C 314.082 386.291 315.607 388.658 316.266 391.063&#xA;C 316.579 392.205 316.462 395.071 317.24 395.766&#xA;C 323.105 396.498 329.159 400.151 329.375 406.656&#xA;C 329.426 408.174 329.315 409.821 328.648 411.216&#xA;C 328.446 411.639 327.675 412.402 327.928 412.85&#xA;C 333.849 414.943 336.344 422.695 334.358 428.215&#xA;C 333.674 430.116 332.058 431.262 331.305 433.01&#xA;C 335.61 438.29 337.857 446.212 332.733 451.82&#xA;C 331.07 453.641 328.328 454.089 326.792 455.885&#xA;C 328.376 461.472 329.945 469.136 324.423 473.205&#xA;C 322.908 474.322 321.187 474.622 319.567 475.465&#xA;C 318.52 476.01 317.674 476.9 316.681 477.538&#xA;C 315.94 478.014 315.119 478.149 314.546 478.847&#xA;C 314.498 482.73 312.4 486.23 308.436 487.122&#xA;C 306.889 487.47 305.457 487.095 303.984 487.25&#xA;C 302.756 488.828 301.34 490.511 299.312 491.022&#xA;C 297.791 491.404 296.311 490.61 294.918 491.341&#xA;C 296.027 496.38 296.351 501.6 300.112 505.594&#xA;C 304.268 510.008 311.073 510.665 316.722 511.679&#xA;C 324.646 513.101 333.018 515.182 339.864 519.665&#xA;C 351.453 527.254 357.805 540.925 362.311 553.527&#xA;C 367.035 566.739 372.625 579.777 372.64 594.103&#xA;C 372.644 598.169 371.684 602.457 370.782 606.405&#xA;C 368.933 605.623 367.333 604.296 365.394 603.587&#xA;C 361.352 602.11 357.079 601.515 353.007 600.222&#xA;C 352.902 599.103 353.041 597.752 352.59 596.704&#xA;C 350.66 592.215 344.765 595.618 341.397 595.851&#xA;C 340.203 595.934 339.158 595.397 338.025 595.145&#xA;C 336.58 595.598 336.235 596.128 334.851 595.286&#xA;C 331.798 594.496 328.445 594.46 325.322 593.952&#xA;C 319.818 593.056 314.554 591.822 309.021 591.611&#xA;C 310.617 588.543 314.845 588.366 316.505 585.662&#xA;C 313.275 582.114 313.628 578.027 312.645 573.639&#xA;C 304.884 578.482 297.399 583.873 291.234 590.734&#xA;C 290.605 590.998 288.512 589.92 287.674 589.803&#xA;C 284.598 589.376 281.462 589.302 278.36 589.264&#xA;C 271.477 589.182 264.507 588.936 257.634 589.367&#xA;C 254.987 589.533 252.284 589.69 249.658 590.065&#xA;C 248.171 590.277 246.535 590.798 245.044 590.778&#xA;C 243.203 590.422 241.32 588.595 239.662 587.69&#xA;C 235.283 585.3 230.478 582.527 225.458 581.833&#xA;C 224.22 582.962 223.137 584.247 222.016 585.489&#xA;C 221.581 585.971 221.304 586.559 220.596 586.423&#xA;C 220.328 584.717 222.079 581.843 222.515 580.06&#xA;C 223.623 575.538 224.028 570.801 222.053 566.469&#xA;C 218.693 559.097 208.316 554.299 200.536 556.788&#xA;C 195.334 558.452 191.294 563.07 189.393 568.056&#xA;C 187.62 572.708 189.009 577.894 191.046 582.217&#xA;C 191.779 583.771 193.508 585.953 193.666 587.653&#xA;C 193.768 588.747 192.572 589.9 192.297 590.937&#xA;C 191.726 593.095 191.405 595.341 191.038 597.541&#xA;C 190.875 598.515 190.941 599.732 190.491 600.615&#xA;C 184.394 602.331 178.337 603.366 172.467 605.887&#xA;C 171.732 605.237 171.805 603.614 171.601 602.679&#xA;C 170.939 599.647 170.826 596.215 170.981 593.116 Z&#xA;M 208.894 453.588&#xA;C 208.836 454.831 209.274 458.546 210.741 459.022&#xA;C 210.936 457.114 210.801 455.259 211.155 453.35&#xA;C 211.426 451.892 212.159 450.503 212.107 449.012&#xA;C 210.007 449.524 209.339 451.718 208.894 453.588 Z&#xA;M 210.924 413.612&#xA;C 210.904 414.686 211.123 415.721 211.309 416.774&#xA;C 211.559 417.017 213.553 415.783 213.849 415.456&#xA;C 214.184 414.011 214.094 410.549 213.658 409.103&#xA;C 211.926 410.054 211.185 411.707 210.924 413.612 Z&#xA;M 217.829 550.076&#xA;C 217.816 550.227 217.804 550.377 217.791 550.528&#xA;C 221.538 553.244 226.381 557.179 228.483 561.37&#xA;C 230.029 560.448 231.328 559.068 232.935 558.183&#xA;C 236.668 556.131 240.769 554.385 244.786 552.97&#xA;C 259.232 547.882 275.603 547.887 290.54 550.711&#xA;C 296.475 551.834 302.344 553.931 307.793 556.516&#xA;C 309.712 557.426 311.522 558.538 313.45 559.428&#xA;C 313.988 559.675 314.765 560.315 315.363 560.207&#xA;C 317.191 557.679 319.264 555.588 321.857 553.846&#xA;C 323.311 552.869 325.736 552.289 326.824 550.907&#xA;C 326.52 548.7 322.811 546.843 321.056 545.912&#xA;C 314.984 542.692 308.617 539.863 302.047 537.843&#xA;C 282.752 531.912 260.555 532.638 241.307 538.484&#xA;C 232.926 541.03 224.625 544.449 217.829 550.076 Z&#xA;M 218.302 470.484&#xA;C 218.239 470.61 218.177 470.736 218.114 470.861&#xA;C 218.691 472.316 220.763 475.559 222.795 474.757&#xA;C 223.029 473.355 219.473 470.876 218.302 470.484 Z&#xA;M 220.311 398.5&#xA;C 220.077 399.331 220.054 398.97 220.2 399.579&#xA;C 221.257 399.351 224.275 397.731 223.159 396.244&#xA;C 221.835 396.73 221.054 397.299 220.311 398.5 Z&#xA;M 230.451 389.601&#xA;C 230.377 390.228 230.407 389.894 230.367 390.603&#xA;C 230.711 391.636 232.795 388.078 233.167 387.605&#xA;C 233.957 386.601 234.864 385.642 235.855 384.834&#xA;C 236.421 384.372 237.263 384.091 237.453 383.35&#xA;C 233.733 382.53 231.125 386.584 230.451 389.601 Z&#xA;M 230.922 481.255&#xA;C 231.027 483.8 233.21 486.189 235.969 485.727&#xA;C 236.218 485.355 235.362 484.703 235.076 484.409&#xA;C 233.809 483.108 232.703 481.719 230.922 481.255 Z&#xA;M 232.939 439.115&#xA;C 232.419 443.44 233.346 447.925 234.556 452.05&#xA;C 234.964 450.831 234.654 449.249 234.61 447.985&#xA;C 234.538 445.877 234.731 443.745 235.229 441.695&#xA;C 237.471 432.454 244.693 425.288 253.111 421.275&#xA;C 268.266 414.05 288.218 416.153 299.948 428.75&#xA;C 303.571 432.64 306.382 437.347 307.145 442.684&#xA;C 307.561 445.598 307.843 448.475 307.494 451.42&#xA;C 307.963 451.626 308.295 449.824 308.377 449.523&#xA;C 308.946 447.452 309.389 445.404 309.462 443.245&#xA;C 309.711 435.868 307.561 428.558 303.087 422.647&#xA;C 288.141 402.9 254.024 403.414 239.06 422.916&#xA;C 235.357 427.743 233.826 433.207 232.939 439.115 Z&#xA;M 239.882 451.075&#xA;C 239.102 455.583 240.294 459.861 241.775 464.072&#xA;C 246.093 476.353 258.225 489.87 272.153 490.274&#xA;C 277.463 490.428 282.916 487.107 287.086 484.138&#xA;C 293.85 479.322 299.69 471.471 301.721 463.354&#xA;C 302.194 461.463 303.714 457.665 302.608 455.822&#xA;C 301.619 454.175 299.399 453.126 297.74 452.33&#xA;C 294.102 450.586 290.234 449.453 286.582 447.758&#xA;C 283.354 446.258 280.607 443.607 277.408 442.271&#xA;C 278.969 444.874 281.003 446.821 283.446 448.6&#xA;C 284.58 449.426 286.168 450.137 287.058 451.207&#xA;C 286.598 451.507 285.58 451.237 285.051 451.197&#xA;C 282.821 451.03 280.533 450.388 278.451 449.581&#xA;C 272.328 447.206 266.96 442.913 263.066 437.64&#xA;C 261.731 435.832 261.207 433.584 259.868 431.876&#xA;C 259.392 436.446 262.156 441.326 264.987 444.668&#xA;C 266.037 445.908 267.19 447.038 268.359 448.164&#xA;C 268.583 448.381 269.399 448.848 269.324 449.177&#xA;C 263.737 447.508 258.379 443.304 255.39 438.293&#xA;C 254.34 436.531 253.501 434.496 252.983 432.514&#xA;C 252.891 432.161 252.912 430.2 252.608 430.043&#xA;C 252.409 429.94 252.191 430.207 251.983 430.289&#xA;C 250.59 433.629 247.687 436.532 245.563 439.446&#xA;C 242.875 443.132 241.197 446.744 239.882 451.075 Z&#xA;M 249.729 379.536&#xA;C 249.697 379.754 249.666 379.972 249.634 380.19&#xA;C 250.963 380.116 253.348 379.489 253.389 377.89&#xA;C 252.028 377.195 250.59 378.635 249.729 379.536 Z&#xA;M 251.849 512.587&#xA;C 251.841 512.746 251.833 512.906 251.825 513.066&#xA;C 252.925 514.083 253.784 515.249 255.068 516.073&#xA;C 262.972 521.145 275.026 521.332 283.567 517.911&#xA;C 286.622 516.687 289.019 514.908 291.59 512.938&#xA;C 291.331 511.408 289.868 509.696 289.244 508.23&#xA;C 288.234 505.857 287.981 503.376 287.779 500.836&#xA;C 287.701 499.854 287.698 497.37 286.665 496.988&#xA;C 280.193 499.044 274.656 501.497 267.723 500.154&#xA;C 264.974 499.622 262.019 498.827 259.532 497.512&#xA;C 258.838 497.145 257.992 496.754 257.372 496.28&#xA;C 257.081 496.058 256.888 495.485 256.532 495.572&#xA;C 256.228 495.646 256.489 496.197 256.441 496.506&#xA;C 256.255 497.683 255.937 498.854 255.736 500.033&#xA;C 255.036 504.136 254.254 509.112 251.849 512.587 Z&#xA;M 259.534 379.766&#xA;C 259.508 379.892 259.483 380.017 259.457 380.143&#xA;C 259.463 380.593 260.713 379.219 260.839 379.053&#xA;C 261.506 378.176 262.248 377.479 263.094 376.776&#xA;C 264.215 375.844 265.618 374.804 267.012 374.334&#xA;C 267.653 374.117 268.9 374.146 269.051 373.402&#xA;C 264.279 371.796 260.664 375.516 259.534 379.766 Z&#xA;M 306.425 483.07&#xA;C 306.114 483.842 305.983 483.571 306.444 483.973&#xA;C 308.237 483.844 310.56 481.983 309.774 479.91&#xA;C 308.28 480.681 307.286 481.642 306.425 483.07 Z&#xA;M 319.996 572.113&#xA;C 319.217 580.953 326.905 590.456 335.742 591.403&#xA;C 340.975 591.964 348.576 588.624 351.635 584.28&#xA;C 353.414 581.753 354.16 578.481 354.436 575.447&#xA;C 354.835 571.068 354.013 565.234 350.949 561.848&#xA;C 349.379 560.112 346.692 558.99 344.647 557.9&#xA;C 342.725 556.875 340.631 555.732 338.411 555.593&#xA;C 336.796 555.491 335.321 556.029 333.809 556.507&#xA;C 327.18 558.605 320.643 564.776 319.996 572.113 Z&#xA;M 320.493 469.568&#xA;C 320.315 470.442 320.4 470.027 320.238 470.813&#xA;C 320.761 471.309 321.966 469.935 322.303 469.494&#xA;C 323.187 468.337 323.463 464.994 322.524 463.854&#xA;C 322.286 463.757 322.025 463.422 321.809 463.562&#xA;C 321.494 463.767 321.529 464.751 321.484 465.109&#xA;C 321.303 466.56 320.965 468.185 320.493 469.568 Z&#xA;M 322.77 402.481&#xA;C 323.247 404.694 323.894 406.936 324.198 409.179&#xA;C 325.081 409.798 325.647 407.218 325.622 406.663&#xA;C 325.533 404.648 324.279 403.511 322.77 402.481 Z&#xA;M 326.774 451.305&#xA;C 326.792 451.392 326.81 451.478 326.827 451.564&#xA;C 328.761 451.782 331.473 447.876 331.166 446.111&#xA;C 329.666 446.968 327.494 449.763 326.774 451.305 Z" opacity="1" fill="rgb(0,0,0)" fill-rule="evenodd"></path>
<path d="&#xA;M 207.454 595.097&#xA;C 207.598 594.041 207.607 592.935 207.84 591.899&#xA;C 209.813 591.752 211.542 591.286 213.25 590.274&#xA;C 214.554 589.501 216.155 587.918 217.807 588.15&#xA;C 218.989 588.317 219.967 589.515 220.707 590.355&#xA;C 221.401 591.141 222.03 591.972 222.651 592.81&#xA;C 222.812 593.028 223.547 593.429 223.366 593.675&#xA;C 219.38 594.429 215.158 595.976 211.093 596.099&#xA;C 210.12 596.129 208.016 596.681 207.306 596.02&#xA;C 207.412 595.409 207.362 595.716 207.454 595.097 Z" opacity="1" fill="rgb(4,4,4)" fill-rule="evenodd"></path>
<path d="&#xA;M 232.939 439.115&#xA;C 233.826 433.207 235.357 427.743 239.06 422.916&#xA;C 254.024 403.414 288.141 402.9 303.087 422.647&#xA;C 307.561 428.558 309.711 435.868 309.462 443.245&#xA;C 309.389 445.404 308.946 447.452 308.377 449.523&#xA;C 308.295 449.824 307.963 451.626 307.494 451.42&#xA;C 307.843 448.475 307.561 445.598 307.145 442.684&#xA;C 306.382 437.347 303.571 432.64 299.948 428.75&#xA;C 288.218 416.153 268.266 414.05 253.111 421.275&#xA;C 244.693 425.288 237.471 432.454 235.229 441.695&#xA;C 234.731 443.745 234.538 445.877 234.61 447.985&#xA;C 234.654 449.249 234.964 450.831 234.556 452.05&#xA;C 233.346 447.925 232.419 443.44 232.939 439.115 Z" opacity="1" fill="rgb(222,62,121)" fill-rule="evenodd"></path>
<path d="&#xA;M 326.774 451.305&#xA;C 327.494 449.763 329.666 446.968 331.166 446.111&#xA;C 331.473 447.876 328.761 451.782 326.827 451.564&#xA;C 326.81 451.478 326.792 451.392 326.774 451.305 Z" opacity="1" fill="rgb(186,177,183)" fill-rule="evenodd"></path>
<path d="&#xA;M 395.354 454.299&#xA;C 402.382 454.004 409.476 454.306 416.51 454.353&#xA;C 422.599 454.393 428.867 453.967 434.893 455.005&#xA;C 441.657 456.17 447.935 458.795 453.432 462.911&#xA;C 457.675 466.089 460.882 470.631 463.158 475.367&#xA;C 471.129 491.957 466.939 513.142 451.206 523.728&#xA;C 439.952 531.299 425.906 530.212 412.998 530.234&#xA;C 408.733 530.241 404.466 530.213 400.201 530.266&#xA;C 398.989 530.282 396.435 531.017 395.387 530.56&#xA;C 396.027 520.918 395.428 511.157 395.417 501.498&#xA;C 395.4 485.771 395.606 470.021 395.354 454.299 Z&#xA;M 413.061 470.118&#xA;C 413.158 485.068 413.959 500.204 413.251 515.138&#xA;C 423.991 513.853 435.071 517.172 443.628 508.522&#xA;C 448.754 503.339 450.261 495.371 449.038 488.374&#xA;C 448.643 486.121 448.451 483.738 447.413 481.657&#xA;C 445.617 478.057 441.948 474.894 438.572 472.818&#xA;C 433.288 469.569 426.751 469.695 420.771 469.495&#xA;C 418.321 469.413 415.491 469.007 413.085 469.427&#xA;C 413.077 469.658 413.069 469.888 413.061 470.118 Z" opacity="1" fill="rgb(0,0,0)" fill-rule="evenodd"></path>
<path d="&#xA;M 423.85 593.511&#xA;C 428.478 583.033 432.707 572.352 437.142 561.783&#xA;C 438.415 558.749 439.682 555.716 440.968 552.687&#xA;C 441.445 551.563 441.862 549.907 442.814 549.115&#xA;C 445.536 548.913 448.31 548.804 451.038 548.763&#xA;C 454.38 557.72 458.463 566.443 462.253 575.234&#xA;C 464.922 581.426 467.056 588 470.029 594.037&#xA;C 469.517 594.326 467.975 593.824 467.379 593.79&#xA;C 465.298 593.669 463.065 593.632 461.014 594.021&#xA;C 458.955 591.173 458.227 587.315 456.66 584.191&#xA;C 450.119 584.808 443.43 583.463 436.843 584.12&#xA;C 434.279 586.479 435.261 591.68 432.715 593.97&#xA;C 430.118 594.541 426.265 594.606 423.635 594.239&#xA;C 423.706 593.997 423.778 593.754 423.85 593.511 Z&#xA;M 440.36 575.073&#xA;C 440.296 575.304 440.233 575.536 440.169 575.767&#xA;C 444.556 575.993 449.144 575.468 453.493 575.966&#xA;C 451.948 571.795 450.986 567.428 449.499 563.24&#xA;C 448.993 561.815 448.561 559.553 447.347 558.61&#xA;C 445.241 564.105 442.758 569.698 440.36 575.073 Z" opacity="1" fill="rgb(0,0,1)" fill-rule="evenodd"></path>
<path d="&#xA;M 478.687 469.224&#xA;C 482.795 469.245 486.901 469.281 491.01 469.22&#xA;C 492.231 469.202 494.609 468.679 495.633 469.252&#xA;C 495.828 473.068 495.391 476.979 495.747 480.773&#xA;C 496.262 481.119 496.732 479.838 496.898 479.463&#xA;C 497.785 477.46 498.905 475.922 500.503 474.425&#xA;C 504.752 470.444 509.695 467.019 515.769 468.27&#xA;C 516.668 470.799 516.187 474.126 516.044 476.764&#xA;C 515.854 480.27 515.964 483.348 516.795 486.72&#xA;C 515.168 486.116 513.902 485.356 512.127 485.203&#xA;C 504.366 484.534 498.894 489.621 496.42 496.562&#xA;C 495.303 499.698 496.157 504.207 496.187 507.501&#xA;C 496.255 514.98 495.502 522.876 496.34 530.304&#xA;C 490.58 529.757 484.512 530.208 478.727 530.278&#xA;C 478.706 509.938 478.494 489.565 478.687 469.224 Z" opacity="1" fill="rgb(0,0,1)" fill-rule="evenodd"></path>
<path d="&#xA;M 483.927 567.105&#xA;C 486.146 554.753 497.172 548.079 509.243 548.767&#xA;C 511.851 548.915 514.652 549.197 517.075 550.236&#xA;C 519.892 551.444 523.003 554.106 525 556.411&#xA;C 523.563 557.998 521.512 558.958 519.893 560.342&#xA;C 519.597 560.596 518.653 561.806 518.292 561.682&#xA;C 516.125 559.133 513.326 557.151 510.014 556.431&#xA;C 507.174 555.814 504.326 555.963 501.63 557.064&#xA;C 499.428 557.964 497.134 559.411 495.674 561.324&#xA;C 490.995 567.453 491.179 576.138 496.514 581.888&#xA;C 502.376 588.208 513.538 587.943 518.726 580.938&#xA;C 519.29 580.831 519.783 581.884 520.116 582.326&#xA;C 521.333 583.939 523.291 585.474 524.216 587.226&#xA;C 524.038 588.436 520.799 590.199 519.777 590.783&#xA;C 514.989 593.52 508.899 595.725 503.335 594.673&#xA;C 490.623 592.27 482.193 579.723 483.927 567.105 Z" opacity="1" fill="rgb(1,0,1)" fill-rule="evenodd"></path>
<path d="&#xA;M 523.939 451.593&#xA;C 524.998 445.763 530.34 443.622 535.719 444.405&#xA;C 537.48 444.661 539.266 445.046 540.622 446.278&#xA;C 543.242 448.661 543.608 452.52 543.016 455.824&#xA;C 541.819 462.516 533.152 465.445 527.566 461.684&#xA;C 524.253 459.453 523.258 455.336 523.939 451.593 Z" opacity="1" fill="rgb(0,0,1)" fill-rule="evenodd"></path>
<path d="&#xA;M 524.99 490.618&#xA;C 525.842 483.432 524.788 475.984 525.292 468.753&#xA;C 530.716 468.734 536.307 469.221 541.712 468.752&#xA;C 542.115 469.911 541.881 471.292 541.962 472.501&#xA;C 542.191 475.936 541.951 479.466 542.004 482.928&#xA;C 542.174 493.962 542.084 504.997 541.993 516.029&#xA;C 541.963 519.687 542.119 523.342 542.131 526.999&#xA;C 542.134 527.748 542.584 529.893 542.055 530.457&#xA;C 538.206 530.297 534.35 530.291 530.498 530.268&#xA;C 528.686 530.258 526.467 530.651 524.719 530.208&#xA;C 524.636 517.078 524.187 503.727 524.99 490.618 Z" opacity="1" fill="rgb(0,0,1)" fill-rule="evenodd"></path>
<path d="&#xA;M 537.33 592.488&#xA;C 541.533 582.544 545.863 572.61 550.267 562.749&#xA;C 552.309 558.176 553.529 552.529 556.497 548.465&#xA;C 559.187 548.46 561.977 548.971 564.654 548.668&#xA;C 565.855 550.764 566.532 553.256 567.485 555.48&#xA;C 570.036 561.435 572.36 567.481 574.905 573.437&#xA;C 576.968 578.264 579.1 583.058 581.202 587.869&#xA;C 582.039 589.783 583.422 591.817 583.925 593.832&#xA;C 581.945 593.634 579.691 593.812 577.707 594.005&#xA;C 576.958 594.078 575.952 594.445 575.238 594.215&#xA;C 573.789 590.899 572.003 587.72 570.57 584.382&#xA;C 568.675 584.075 566.627 584.272 564.705 584.199&#xA;C 559.964 584.016 555.227 583.867 550.485 584.096&#xA;C 548.714 587.309 547.795 590.886 546.256 594.215&#xA;C 544.462 594.767 541.643 594.35 539.75 594.363&#xA;C 539.213 594.366 537.993 594.609 537.518 594.32&#xA;C 536.836 593.905 537.164 593.07 537.33 592.488 Z&#xA;M 554.443 573.554&#xA;C 554.227 574.246 554.071 574.729 554.186 575.462&#xA;C 558.047 576.25 562.933 576.137 566.843 575.622&#xA;C 567.192 574.998 566.026 572.792 565.802 572.075&#xA;C 564.699 568.551 563.298 565.128 562.111 561.635&#xA;C 561.882 560.961 561.101 558.049 560.38 558.101&#xA;C 560.019 560.31 558.833 562.442 558.002 564.527&#xA;C 556.815 567.506 555.888 570.688 554.443 573.554 Z" opacity="1" fill="rgb(0,0,1)" fill-rule="evenodd"></path>
<path d="&#xA;M 551.896 469.456&#xA;C 552.788 468.621 555.277 469.149 556.475 469.156&#xA;C 559.906 469.176 563.375 469.226 566.802 469.031&#xA;C 567.811 468.973 570.064 468.355 570.913 468.82&#xA;C 571.676 475.459 575.284 482.052 577.598 488.264&#xA;C 579.437 493.203 581.348 498.155 583.078 503.132&#xA;C 583.862 505.386 584.406 507.945 585.53 510.052&#xA;C 587.376 506.73 588.286 502.355 589.659 498.776&#xA;C 593.435 488.934 596.858 478.933 600.766 469.147&#xA;C 605.012 469.145 609.264 469.175 613.513 469.216&#xA;C 615.346 469.233 617.714 468.826 619.461 469.43&#xA;C 618.299 472.474 616.798 475.332 615.471 478.31&#xA;C 611.423 487.392 607.656 496.696 604 505.948&#xA;C 601.914 511.226 599.696 516.446 597.595 521.716&#xA;C 596.5 524.463 595.812 527.686 594.172 530.175&#xA;C 593.02 530.725 590.787 530.276 589.499 530.273&#xA;C 585.665 530.264 581.321 530.944 577.553 530.487&#xA;C 570.912 516.089 564.894 501.304 559.035 486.569&#xA;C 556.758 480.843 553.854 475.289 551.896 469.456 Z" opacity="1" fill="rgb(0,0,1)" fill-rule="evenodd"></path>
<path d="&#xA;M 601.001 551.614&#xA;C 601.05 550.961 601.082 550.304 601.108 549.649&#xA;C 601.685 548.964 603.763 549.292 604.638 549.284&#xA;C 608.246 549.253 611.854 549.282 615.461 549.351&#xA;C 623.755 549.511 631.345 550.378 637.081 557.215&#xA;C 640.459 561.24 642.58 566.682 642.437 571.964&#xA;C 642.203 580.594 635.846 589.624 627.56 592.03&#xA;C 618.785 594.578 610.326 593.198 601.433 593.961&#xA;C 601.011 592.616 601.249 590.911 601.248 589.508&#xA;C 601.248 586.509 601.246 583.509 601.237 580.509&#xA;C 601.206 570.885 600.894 561.232 601.001 551.614 Z&#xA;M 609.941 556.507&#xA;C 609.542 557.196 609.717 558.248 609.718 559.035&#xA;C 609.719 560.857 609.765 562.68 609.789 564.502&#xA;C 609.85 569.167 609.782 573.833 609.804 578.499&#xA;C 609.815 580.961 609.599 583.729 610.15 586.139&#xA;C 616.306 585.849 621.805 586.974 627.287 583.332&#xA;C 635.129 578.12 635.747 565.219 627.923 559.614&#xA;C 622.825 555.961 615.88 556.308 609.941 556.507 Z" opacity="1" fill="rgb(0,0,1)" fill-rule="evenodd"></path>
<path d="&#xA;M 629.023 529.633&#xA;C 629.694 514.637 629.193 499.519 629.152 484.508&#xA;C 629.125 474.498 629.801 464.296 629.255 454.31&#xA;C 633.156 454.505 637.102 454.376 641.009 454.369&#xA;C 642.685 454.365 644.834 453.968 646.439 454.453&#xA;C 645.789 464.678 646.835 474.999 646.616 485.226&#xA;C 652.52 485.623 658.588 485.275 664.509 485.285&#xA;C 669.042 485.293 673.843 485.725 678.349 485.277&#xA;C 678.119 478.046 678.282 470.733 678.379 463.496&#xA;C 678.406 461.459 678.498 459.424 678.532 457.389&#xA;C 678.549 456.371 678.358 455.228 678.766 454.295&#xA;C 682.598 454.348 686.428 454.401 690.261 454.377&#xA;C 691.694 454.368 693.878 453.994 695.185 454.665&#xA;C 695.369 473.438 695.356 492.226 695.405 511.004&#xA;C 695.418 515.837 695.477 520.67 695.466 525.504&#xA;C 695.464 526.516 695.978 529.521 695.383 530.234&#xA;C 689.752 530.172 684.046 529.949 678.432 530.415&#xA;C 677.996 529.776 678.185 528.767 678.199 528.007&#xA;C 678.233 526.173 678.233 524.34 678.232 522.505&#xA;C 678.228 515.216 677.933 507.845 678.2 500.571&#xA;C 675.012 499.86 671.257 500.297 667.999 500.282&#xA;C 660.718 500.248 653.383 500.497 646.114 500.259&#xA;C 646.674 504.237 646.306 508.486 646.303 512.5&#xA;C 646.298 518.443 646.493 524.403 646.41 530.342&#xA;C 640.696 530.786 634.893 530.01 629.165 530.513&#xA;C 628.999 529.999 629.061 530.289 629.023 529.633 Z" opacity="1" fill="rgb(224,58,124)" fill-rule="evenodd"></path>
<path d="&#xA;M 661.005 589.119&#xA;C 661.489 584.672 661.098 579.978 661.111 575.505&#xA;C 661.137 566.757 661.194 558.01 661.348 549.266&#xA;C 669.125 548.871 676.955 549.396 684.749 549.197&#xA;C 686.965 549.141 689.168 548.996 691.379 548.877&#xA;C 692.073 548.839 693.307 548.594 693.904 548.955&#xA;C 694.245 551.505 694.643 554.183 693.673 556.645&#xA;C 692.227 557.571 688.698 556.96 687.006 556.957&#xA;C 681.286 556.948 675.505 556.539 669.793 556.841&#xA;C 669.332 560.411 669.738 564.128 669.683 567.713&#xA;C 673.61 567.544 677.575 567.705 681.507 567.69&#xA;C 684.483 567.678 687.511 567.392 690.472 567.75&#xA;C 690.729 570.095 690.889 572.508 690.717 574.869&#xA;C 685.464 574.906 680.232 575.213 674.953 575.108&#xA;C 673.351 575.077 670.743 574.264 669.547 575.456&#xA;C 669.147 578.878 669.303 582.499 669.468 585.936&#xA;C 674.771 585.759 680.101 586.037 685.41 586.067&#xA;C 688.047 586.082 691.504 585.513 694.031 586.268&#xA;C 694.292 588.77 694.515 591.627 694.399 594.135&#xA;C 686.321 593.086 677.653 593.955 669.507 593.946&#xA;C 667.399 593.944 665.265 593.843 663.161 593.987&#xA;C 662.507 594.032 661.312 594.546 660.804 594.094&#xA;C 660.984 592.446 660.926 590.774 661.005 589.119 Z" opacity="1" fill="rgb(1,0,1)" fill-rule="evenodd"></path>
<path d="&#xA;M 710.878 454.77&#xA;C 714.489 454.204 718.353 454.551 722.001 454.547&#xA;C 729.497 454.54 737.008 454.673 744.502 454.53&#xA;C 749.502 454.434 754.505 454.461 759.508 454.467&#xA;C 762.146 454.47 765.129 454.096 767.703 454.713&#xA;C 767.539 458.133 767.8 461.657 767.852 465.091&#xA;C 767.873 466.458 767.57 468.468 768.119 469.718&#xA;C 766.871 469.414 765.289 469.691 764.002 469.696&#xA;C 761.001 469.708 758.001 469.71 755 469.71&#xA;C 745.989 469.71 736.961 469.533 727.953 469.755&#xA;C 727.947 474.814 727.607 479.908 727.938 484.96&#xA;C 739.993 484.889 752.055 484.858 764.11 484.812&#xA;C 765.075 489.618 763.275 494.962 764.274 499.735&#xA;C 752.114 499.7 739.866 499.305 727.715 499.745&#xA;C 727.285 504.838 727.853 510.075 727.694 515.189&#xA;C 728.375 515.643 729.689 515.305 730.505 515.296&#xA;C 733.007 515.267 735.507 515.247 738.008 515.249&#xA;C 745.175 515.255 752.341 515.24 759.508 515.228&#xA;C 761.672 515.224 763.837 515.235 766.001 515.217&#xA;C 766.93 515.209 768.115 514.996 768.981 515.321&#xA;C 768.808 517.431 769.13 519.657 769.149 521.785&#xA;C 769.175 524.607 768.903 527.606 769.311 530.402&#xA;C 749.847 530.364 730.282 530.798 710.832 530.211&#xA;C 711.392 521.9 710.771 513.341 710.795 505.003&#xA;C 710.842 488.265 711.001 471.503 710.878 454.77 Z" opacity="1" fill="rgb(226,57,123)" fill-rule="evenodd"></path>
<path d="&#xA;M 713.914 550.564&#xA;C 714.169 549.859 714.403 549.364 715.034 548.93&#xA;C 716.892 548.554 719.576 548.235 721.463 548.498&#xA;C 727.433 555.809 731.765 564.885 736.603 572.96&#xA;C 738.255 571.403 739.489 568.539 740.717 566.604&#xA;C 743.579 562.096 746.35 557.534 749.248 553.049&#xA;C 750.215 551.554 750.883 549.835 751.984 548.445&#xA;C 754.548 548.595 757.151 548.413 759.697 548.731&#xA;C 760.167 549.746 759.816 551.371 759.81 552.488&#xA;C 759.791 555.657 759.747 558.823 759.687 561.992&#xA;C 759.534 569.991 759.649 578.007 759.749 586.007&#xA;C 759.781 588.545 760.277 591.245 760.126 593.753&#xA;C 757.522 593.629 754.721 593.777 752.149 594.183&#xA;C 751.75 593.528 751.91 592.405 751.909 591.649&#xA;C 751.906 589.586 751.876 587.524 751.869 585.461&#xA;C 751.855 581.108 751.807 576.745 751.937 572.393&#xA;C 752.03 569.254 752.431 565.93 752.054 562.814&#xA;C 750.076 564.466 748.874 567.234 747.578 569.424&#xA;C 745.629 572.719 743.519 575.912 741.47 579.145&#xA;C 740.441 580.769 739.075 584.669 737.145 585.355&#xA;C 735.651 584.532 734.509 582.435 733.527 581.062&#xA;C 730.881 577.362 728.368 573.683 726.073 569.752&#xA;C 724.988 567.894 723.91 566.008 722.895 564.114&#xA;C 722.555 563.479 722.119 561.931 721.499 562.763&#xA;C 721.857 569.501 722.12 576.162 722.054 582.921&#xA;C 722.019 586.415 721.699 589.963 721.909 593.455&#xA;C 719.267 593.381 716.572 593.819 713.936 593.599&#xA;C 714.236 583.7 714.114 573.745 714.076 563.839&#xA;C 714.06 559.654 713.003 554.628 713.914 550.564 Z" opacity="1" fill="rgb(1,0,1)" fill-rule="evenodd"></path>
<path d="&#xA;M 776.337 549.289&#xA;C 779.193 549.337 782.228 549.127 785.079 548.819&#xA;C 787.549 552.054 789.252 555.942 791.361 559.417&#xA;C 793.204 562.453 795.499 565.219 797.303 568.265&#xA;C 797.76 568.323 797.932 567.585 798.094 567.258&#xA;C 798.708 566.019 799.447 564.809 800.167 563.628&#xA;C 803.104 558.815 805.633 553.424 809.12 548.988&#xA;C 811.045 548.302 813.657 548.797 815.711 548.651&#xA;C 816.658 548.584 817.733 548.408 818.56 548.967&#xA;C 818.043 551.466 815.496 554.387 814.13 556.562&#xA;C 811.358 560.978 808.489 565.332 805.747 569.766&#xA;C 804.461 571.846 802.812 573.932 801.77 576.138&#xA;C 801.086 577.586 801.433 579.692 801.437 581.258&#xA;C 801.447 585.24 801.832 589.438 801.388 593.393&#xA;C 798.819 593.159 795.983 593.241 793.417 593.491&#xA;C 792.687 592.78 793.185 590.293 793.214 589.313&#xA;C 793.319 585.809 794.019 581.387 793.151 577.969&#xA;C 792.503 575.418 790.175 572.695 788.839 570.423&#xA;C 784.731 563.441 779.513 556.73 776.337 549.289 Z" opacity="1" fill="rgb(1,0,1)" fill-rule="evenodd"></path>
<path d="&#xA;M 781.896 454.787&#xA;C 783.726 454.388 785.688 454.604 787.549 454.6&#xA;C 791.2 454.592 794.851 454.594 798.502 454.592&#xA;C 814.05 454.58 834.255 452.642 842.525 469.25&#xA;C 843.706 471.623 844.327 474.225 844.621 476.849&#xA;C 844.984 480.086 844.815 483.486 844.052 486.655&#xA;C 842.73 492.139 839.373 496.627 834.729 499.792&#xA;C 833.265 500.79 831.775 501.559 830.161 502.278&#xA;C 829.449 502.596 828.477 502.743 828.108 503.423&#xA;C 832.703 508.987 836.559 515.223 840.627 521.177&#xA;C 842.059 523.272 843.551 525.322 844.98 527.416&#xA;C 845.18 527.708 846.905 530.149 846.9 530.152&#xA;C 842.448 530.335 837.959 530.202 833.5 530.216&#xA;C 831.778 530.222 829.126 530.743 827.541 530.034&#xA;C 825.845 528.408 824.763 526.24 823.489 524.289&#xA;C 820.772 520.131 818.212 515.87 815.46 511.737&#xA;C 814.165 509.792 812.857 506.883 810.935 505.514&#xA;C 808.014 505.181 804.772 505.754 801.803 505.698&#xA;C 801.053 505.684 798.896 505.351 798.453 505.865&#xA;C 799.101 513.899 797.666 522.201 798.626 530.184&#xA;C 793.115 530.706 787.484 530.009 781.952 530.38&#xA;C 781.375 530.095 781.76 526.745 781.754 526.007&#xA;C 781.719 521.508 781.694 517.009 781.653 512.51&#xA;C 781.48 493.34 780.988 473.934 781.896 454.787 Z&#xA;M 798.483 470.151&#xA;C 798.216 477.369 798.714 484.599 798.601 491.81&#xA;C 802.036 491.82 805.486 491.799 808.924 491.911&#xA;C 813.809 492.07 818.865 492.405 823.132 489.523&#xA;C 828.277 486.05 828.651 475.912 823.96 471.895&#xA;C 819.069 467.706 810.892 469.223 804.999 469.248&#xA;C 803.146 469.255 800.005 468.578 798.453 469.542&#xA;C 798.463 469.745 798.473 469.948 798.483 470.151 Z" opacity="1" fill="rgb(225,60,124)" fill-rule="evenodd"></path>

</svg>